<svg width="100" height="100" viewBox="5 5 90 70" xmlns="http://www.w3.org/2000/svg">

    <defs>

        <linearGradient id="silverU" x1="0%" y1="0%" x2="0%" y2="100%">

            <stop offset="0%" style="stop-color:white;stop-opacity:1"/>

            <stop offset="100%" style="stop-color:#c2c2c2;stop-opacity:1"/>

        </linearGradient>

    </defs>



    <rect x="5" y="5" width="90" height="70" rx="10" ry="10" fill="#2a2a2a"/>



    <rect x="8" y="8" width="84" height="64" rx="8" ry="8" fill="#4a4a4a"/>



    <rect x="12" y="12" width="76" height="56" rx="6" ry="6" fill="#1a1a1a"/>



    <g fill="url(#silverU)">

        <rect x="36" y="24" width="8" height="32"/>

        <rect x="56" y="24" width="8" height="32"/>

        <rect x="44" y="48" width="12" height="8"/>

    </g>

    <g fill="url(#silverU)" opacity="0.8">

        <rect x="37" y="27" width="6" height="30"/>

        <rect x="57" y="27" width="6" height="30"/>

        <rect x="43" y="51" width="14" height="6"/>

    </g>

    <g fill="url(#silverU)" opacity="0.6">

        <rect x="38" y="28" width="4" height="28"/>

        <rect x="58" y="28" width="4" height="28"/>

        <rect x="42" y="52" width="16" height="4"/>

    </g>





    <g stroke="#000" stroke-width="0.5" opacity="0.3">

        <line x1="12" y1="14" x2="88" y2="14"/>

        <line x1="12" y1="16" x2="88" y2="16"/>

        <line x1="12" y1="18" x2="88" y2="18"/>

        <line x1="12" y1="20" x2="88" y2="20"/>

        <line x1="12" y1="22" x2="88" y2="22"/>

        <line x1="12" y1="24" x2="88" y2="24"/>

        <line x1="12" y1="26" x2="88" y2="26"/>

        <line x1="12" y1="28" x2="88" y2="28"/>

        <line x1="12" y1="30" x2="88" y2="30"/>

        <line x1="12" y1="32" x2="88" y2="32"/>

        <line x1="12" y1="34" x2="88" y2="34"/>

        <line x1="12" y1="36" x2="88" y2="36"/>

        <line x1="12" y1="38" x2="88" y2="38"/>

        <line x1="12" y1="40" x2="88" y2="40"/>

        <line x1="12" y1="42" x2="88" y2="42"/>

        <line x1="12" y1="44" x2="88" y2="44"/>

        <line x1="12" y1="46" x2="88" y2="46"/>

        <line x1="12" y1="48" x2="88" y2="48"/>

        <line x1="12" y1="50" x2="88" y2="50"/>

        <line x1="12" y1="52" x2="88" y2="52"/>

        <line x1="12" y1="54" x2="88" y2="54"/>

        <line x1="12" y1="56" x2="88" y2="56"/>

        <line x1="12" y1="58" x2="88" y2="58"/>

        <line x1="12" y1="60" x2="88" y2="60"/>

        <line x1="12" y1="62" x2="88" y2="62"/>

        <line x1="12" y1="64" x2="88" y2="64"/>

        <line x1="12" y1="66" x2="88" y2="66"/>

    </g>



    <linearGradient id="screenGlare" x1="0%" y1="0%" x2="100%" y2="100%">

        <stop offset="0%" style="stop-color:white;stop-opacity:0.2"/>

        <stop offset="30%" style="stop-color:white;stop-opacity:0"/>

        <stop offset="70%" style="stop-color:white;stop-opacity:0"/>

        <stop offset="100%" style="stop-color:white;stop-opacity:0.1"/>

    </linearGradient>

    <rect x="12" y="12" width="76" height="56" rx="6" ry="6" fill="url(#screenGlare)"/>

</svg>